<?xml version="1.0" encoding="UTF-8" standalone="no"?>
<svg
   width="110"
   height="24"
   viewBox="0 0 110 24"
   fill="none"
   version="1.1"
   id="svg1"
   sodipodi:docname="vestr_icon.svg"
   inkscape:version="1.4.2 (ebf0e940d0, 2025-05-08)"
   xmlns:inkscape="http://www.inkscape.org/namespaces/inkscape"
   xmlns:sodipodi="http://sodipodi.sourceforge.net/DTD/sodipodi-0.dtd"
   xmlns="http://www.w3.org/2000/svg"
   xmlns:svg="http://www.w3.org/2000/svg">
  <defs
     id="defs1" />
  <sodipodi:namedview
     id="namedview1"
     pagecolor="#ffffff"
     bordercolor="#000000"
     borderopacity="0.25"
     inkscape:showpageshadow="2"
     inkscape:pageopacity="0.0"
     inkscape:pagecheckerboard="0"
     inkscape:deskcolor="#d1d1d1"
     showgrid="false"
     inkscape:zoom="3.6363636"
     inkscape:cx="71.775"
     inkscape:cy="-7.2875"
     inkscape:window-width="1722"
     inkscape:window-height="2132"
     inkscape:window-x="1056"
     inkscape:window-y="22"
     inkscape:window-maximized="1"
     inkscape:current-layer="svg1" />
  <path
     d="M7.1365 0.318153L9.18195 16.7272H9.36377L16.8638 0.318153H24.0001L12.4547 23.5909H3.81832L0.000133276 0.318153H7.1365ZM23.018 23.5909L26.8816 0.318153H43.6543L42.7907 5.40906H32.3362L31.6998 9.40906H41.2907L40.4271 14.5H30.8362L30.1998 18.5H40.6089L39.7452 23.5909H23.018ZM58.746 7.59088C58.8142 6.84088 58.6324 6.25376 58.2006 5.82952C57.7688 5.3977 57.0415 5.18179 56.0188 5.18179C55.3673 5.18179 54.8218 5.25755 54.3824 5.40906C53.9506 5.56058 53.6135 5.76891 53.371 6.03406C53.1362 6.29921 52.9885 6.60603 52.9279 6.95452C52.8597 7.22724 52.8635 7.47724 52.9392 7.70452C53.0226 7.92421 53.1779 8.12497 53.4051 8.30679C53.64 8.48861 53.9468 8.65149 54.3256 8.79543C54.712 8.93937 55.1703 9.06815 55.7006 9.18179L57.5188 9.59088C58.7612 9.86361 59.8029 10.2235 60.6438 10.6704C61.4923 11.1098 62.1589 11.6325 62.6438 12.2386C63.1286 12.8447 63.4468 13.5227 63.5983 14.2727C63.7574 15.0227 63.7612 15.8409 63.6097 16.7272C63.3521 18.2575 62.7574 19.553 61.8256 20.6136C60.8938 21.6742 59.6779 22.481 58.1779 23.0341C56.6779 23.5871 54.943 23.8636 52.9733 23.8636C50.9582 23.8636 49.246 23.5644 47.837 22.9659C46.4354 22.3598 45.4203 21.4356 44.7915 20.1932C44.1703 18.9432 44.0188 17.3485 44.337 15.4091H50.337C50.246 16.1212 50.3218 16.7197 50.5642 17.2045C50.8066 17.6894 51.1968 18.0568 51.7347 18.3068C52.2726 18.5568 52.943 18.6818 53.746 18.6818C54.4279 18.6818 55.0112 18.5985 55.496 18.4318C55.9809 18.2651 56.3635 18.0341 56.6438 17.7386C56.9241 17.4432 57.0945 17.106 57.1551 16.7272C57.2157 16.3788 57.1551 16.0682 56.9733 15.7954C56.7915 15.5227 56.462 15.2765 55.9847 15.0568C55.5074 14.8371 54.8521 14.6363 54.0188 14.4545L51.7915 13.9545C49.8142 13.5 48.3218 12.75 47.3142 11.7045C46.3066 10.6591 45.9506 9.22724 46.246 7.40906C46.4885 5.92421 47.0983 4.62876 48.0756 3.5227C49.0604 2.40906 50.3104 1.54543 51.8256 0.931789C53.3483 0.310577 55.0339 -2.86102e-05 56.8824 -2.86102e-05C58.7612 -2.86102e-05 60.3332 0.314365 61.5983 0.943153C62.871 1.57194 63.7839 2.45452 64.337 3.59088C64.8976 4.72724 65.0491 6.06058 64.7915 7.59088H58.746ZM67.8804 5.40906L68.744 0.318153H88.9713L88.1076 5.40906H81.1076L78.1076 23.5909H71.8804L74.8804 5.40906H67.8804ZM88.1255 23.5909L91.9891 0.318153H102.035C103.762 0.318153 105.22 0.632547 106.41 1.26134C107.599 1.89012 108.455 2.79543 108.978 3.97725C109.5 5.15906 109.625 6.57573 109.353 8.22724C109.08 9.89391 108.478 11.2992 107.546 12.4432C106.622 13.5795 105.444 14.4432 104.012 15.0341C102.588 15.6174 100.989 15.9091 99.2164 15.9091H93.2164L94.0346 11H98.7618C99.5043 11 100.156 10.9091 100.716 10.7272C101.277 10.5379 101.732 10.2424 102.08 9.84088C102.429 9.43179 102.656 8.89391 102.762 8.22724C102.868 7.56058 102.815 7.01891 102.603 6.60225C102.391 6.178 102.038 5.8674 101.546 5.67043C101.054 5.46588 100.444 5.36361 99.7164 5.36361H97.4891L94.4437 23.5909H88.1255ZM103.535 12.9091L107.58 23.5909H100.716L96.8073 12.9091H103.535Z"
     fill="white"
     id="path1" />
</svg>
